<svg width="50" height="50" viewBox="0 0 61 60" fill="none" xmlns="http://www.w3.org/2000/svg">
<rect x="0.636108" width="60" height="60" rx="30" fill="#F03D70"/>
<path d="M47.038 34.4543C48.0778 35.64 48.6361 36.9699 48.6361 39.1256C48.6361 42.919 46.1557 46.319 42.5486 48L41.6471 46.5065C45.0139 44.5513 45.6721 42.014 45.9346 40.4143C45.3925 40.7156 44.6828 40.8207 43.9872 40.7514C42.166 40.5704 40.7304 38.9652 40.7304 36.9699C40.7304 35.9638 41.1027 34.9989 41.7653 34.2875C42.428 33.5761 43.3267 33.1765 44.2638 33.1765C45.347 33.1765 46.3828 33.7075 47.038 34.4543ZM36.9427 34.4543C37.9825 35.64 38.5408 36.9699 38.5408 39.1256C38.5408 42.919 36.0603 46.319 32.4533 48L31.5518 46.5065C34.9186 44.5513 35.5768 42.014 35.8392 40.4143C35.2971 40.7156 34.5874 40.8207 33.8919 40.7514C32.0707 40.5704 30.6361 38.9652 30.6361 36.9699C30.6361 35.9638 31.0084 34.9989 31.671 34.2875C32.3336 33.5761 33.2324 33.1765 34.1695 33.1765C35.2527 33.1765 36.2885 33.7075 36.9437 34.4543H36.9427Z" fill="white"/>
<path d="M14.2341 25.5457C13.1943 24.36 12.6361 23.0301 12.6361 20.8744C12.6361 17.081 15.1164 13.681 18.7233 12L19.6247 13.4935C16.2581 15.4487 15.5999 17.986 15.3375 19.5857C15.8796 19.2844 16.5892 19.1793 17.2848 19.2486C19.1059 19.4296 20.5413 21.0348 20.5413 23.0301C20.5413 24.0362 20.1691 25.0011 19.5065 25.7125C18.8439 26.4239 17.9452 26.8235 17.0082 26.8235C15.925 26.8235 14.8893 26.2925 14.2341 25.5457ZM24.3289 25.5457C23.2891 24.36 22.7309 23.0301 22.7309 20.8744C22.7309 17.081 25.2112 13.681 28.818 12L29.7195 13.4935C26.3529 15.4487 25.6947 17.986 25.4322 19.5857C25.9743 19.2844 26.684 19.1793 27.3795 19.2486C29.2006 19.4296 30.6361 21.0348 30.6361 23.0301C30.6361 24.0362 30.2639 25.0011 29.6013 25.7125C28.9387 26.4239 28.04 26.8235 27.1029 26.8235C26.0198 26.8235 24.984 26.2925 24.3289 25.5457Z" fill="white"/>
</svg>
